PathFileType	4	(X/Y/Z)	C:/Users/opensim2020/Desktop/walking_exp_matlab/subject02_walking08_straight_04.trc	
DataRate	CameraRate	NumFrames	NumMarkers	Units	OrigDataRate	OrigDataStartFrame	OrigNumFrames	
100.00	100.00	6	41	mm	100.00	3077	241	
Frame#	Time	LFHD			RFHD			LBHD			RBHD			C7			T10			CLAV			STRN			RBAK			LSHO			LUPA			LELB			LFRM			LWRA			LWRB			LFIN			RSHO			RUPA			RELB			RFRM			RWRA			RWRB			RFIN			LASI			RASI			LPSI			RPSI			LTHI			LKNE			LTIB			LANK			LHEE			LTOE			RTHI			RKNE			RTIB			RANK			RHEE			RTOE			*39			*40			
		X1	Y1	Z1	X2	Y2	Z2	X3	Y3	Z3	X4	Y4	Z4	X5	Y5	Z5	X6	Y6	Z6	X7	Y7	Z7	X8	Y8	Z8	X9	Y9	Z9	X10	Y10	Z10	X11	Y11	Z11	X12	Y12	Z12	X13	Y13	Z13	X14	Y14	Z14	X15	Y15	Z15	X16	Y16	Z16	X17	Y17	Z17	X18	Y18	Z18	X19	Y19	Z19	X20	Y20	Z20	X21	Y21	Z21	X22	Y22	Z22	X23	Y23	Z23	X24	Y24	Z24	X25	Y25	Z25	X26	Y26	Z26	X27	Y27	Z27	X28	Y28	Z28	X29	Y29	Z29	X30	Y30	Z30	X31	Y31	Z31	X32	Y32	Z32	X33	Y33	Z33	X34	Y34	Z34	X35	Y35	Z35	X36	Y36	Z36	X37	Y37	Z37	X38	Y38	Z38	X39	Y39	Z39	X40	Y40	Z40	X41	Y41	Z41	

91	0.900	1512.85303	166.52095	1708.06311	1371.20007	186.87427	1690.64368	1537.91382	303.59766	1650.87451	1398.41431	336.35507	1634.00366	1453.04614	379.80151	1508.31409	1439.75171	432.36160	1228.72205	1471.90112	242.70204	1434.98877	1452.51392	190.15753	1266.17126	1378.67395	435.73047	1334.32605	1634.73792	331.13019	1470.31409	1704.32458	393.73001	1278.70239	1709.66479	430.46280	1143.74426	1729.76428	462.53394	1017.89661	1730.86560	436.58530	879.81775	1739.93506	489.49365	897.82770	1752.47717	492.02234	831.66290	1271.24609	290.92697	1479.90771	1181.43896	281.82776	1287.85400	1163.99878	233.12755	1146.72815	1160.13879	160.31335	1048.44800	1196.52161	70.66196	954.24854	1160.05615	106.67716	929.98578	1166.29004	45.86641	890.79034	1566.57678	175.18727	981.29187	1307.76697	199.72647	952.45746	1503.89624	396.09366	1011.64215	1392.01367	409.24225	1005.78369	1640.73047	179.12125	681.33966	1610.57947	156.25356	479.92236	1617.21387	167.38606	285.10001	1584.40796	121.47462	68.54862	1532.61877	152.25468	40.07509	1591.51257	-36.19692	37.98136	1254.00977	351.48563	660.43567	1284.98621	406.63428	459.44748	1287.99194	534.84381	318.17160	1325.04028	639.79614	155.85960	1385.37708	688.55621	122.54362	1310.54712	528.12048	37.53567	1435.40381	269.37939	1787.17200			 
92	0.910	1514.28833	156.90079	1708.72974	1372.72522	178.02762	1691.13208	1540.29932	294.09259	1651.94983	1400.92297	327.85147	1634.86560	1455.40588	370.60156	1509.23914	1442.01794	421.93652	1228.81445	1474.02380	233.44591	1436.10388	1454.89490	180.15025	1267.63782	1381.14294	426.05383	1334.16064	1637.28101	321.49173	1471.00769	1707.19739	382.01257	1278.63000	1712.90283	417.47699	1143.37866	1733.40808	448.37106	1017.37177	1734.78381	421.19073	879.55731	1744.07410	474.08609	897.06036	1756.78955	476.16205	831.14313	1272.91919	282.14825	1480.19495	1184.02393	274.02594	1287.60486	1167.39209	225.93217	1146.20203	1162.98694	154.05609	1047.29004	1199.10510	65.61331	952.21753	1162.33704	101.74490	928.17755	1168.78687	41.81704	888.58405	1569.95605	164.31792	982.76385	1311.61389	187.83540	952.72791	1506.63037	385.14966	1013.58868	1394.10303	397.10617	1006.37463	1641.69055	168.07172	682.51508	1611.36682	144.99712	480.85974	1618.71948	160.05959	286.30991	1584.59204	119.31163	68.83386	1532.68469	151.80151	40.69636	1590.69812	-37.68047	36.73421	1255.79260	338.68872	661.17853	1283.51196	392.32059	460.00513	1287.04907	523.76691	322.16962	1324.06201	632.63312	162.59035	1384.91699	681.44965	131.41287	1310.48804	527.14569	37.88468	1437.34473	260.04141	1788.04944	-3356.97070	2845.88525	1033.91150 
93	0.920	1515.92932	147.43954	1709.53430	1374.26099	169.21634	1691.81372	1542.25830	284.35233	1652.88428	1403.21216	319.06628	1635.94568	1457.51770	361.45865	1510.07141	1444.11658	411.64258	1229.03101	1476.10681	224.18219	1437.37610	1457.30078	170.12411	1269.17407	1384.02539	416.85324	1334.36743	1639.52307	311.92093	1472.04895	1710.26953	370.48825	1279.10217	1716.11047	404.26056	1143.43994	1737.05554	433.79706	1017.26056	1738.58447	405.30069	879.66943	1748.28015	458.39749	896.94910	1761.31604	459.82510	831.03851	1275.02466	273.41992	1481.09790	1187.05664	267.12079	1287.62927	1170.21497	219.12875	1146.36731	1165.63428	148.23830	1046.44165	1201.62915	61.29446	950.10919	1165.07727	97.81049	926.78131	1170.77686	38.18476	886.33069	1573.34009	153.64604	984.78894	1315.82300	176.05922	953.52924	1509.23376	375.05432	1015.52454	1395.84253	385.05652	1007.41248	1643.30774	156.36205	683.48389	1612.36438	135.18814	481.33228	1619.23132	153.51459	287.26895	1584.50366	118.52059	69.15796	1532.82336	151.55624	40.58951	1590.81409	-38.57063	35.75937	1257.67773	325.46106	661.76361	1281.93201	376.70303	460.31540	1285.78052	511.26285	325.92688	1323.06628	624.07971	169.33641	1384.82129	672.78082	140.59940	1310.67749	525.87402	37.95486	1439.19495	250.59735	1788.84839	-3360.35132	2845.27002	1033.94592 
94	0.930	1517.35950	137.89941	1710.20081	1375.76807	160.42035	1692.60046	1544.54675	274.99973	1653.98999	1405.38721	310.19055	1637.08691	1459.48523	352.51447	1510.81873	1446.32214	401.56021	1229.36951	1478.02271	215.06657	1438.61658	1459.68298	160.19420	1270.71228	1386.16199	407.17221	1334.53638	1641.41467	302.32117	1473.28650	1713.04980	358.74973	1279.73523	1719.32312	390.77979	1143.83398	1740.73669	418.85690	1017.47986	1742.50854	388.87006	880.20813	1752.41687	441.92749	896.80792	1765.69531	442.84961	831.06482	1276.89087	264.74039	1482.00146	1190.51306	260.43115	1288.39490	1173.32544	212.34480	1146.86011	1168.48376	143.02956	1046.01538	1203.80029	56.69473	948.44324	1167.62756	93.95440	925.45465	1173.03479	35.12870	884.38757	1576.58374	143.06929	987.30688	1320.06982	164.60846	954.60431	1511.62915	363.57498	1016.70410	1397.37561	373.38647	1008.52954	1645.13904	144.76999	683.77527	1613.51050	126.49808	481.47925	1619.80273	148.07520	287.90186	1584.00159	117.56380	69.00723	1532.93286	151.53493	40.97638	1590.50623	-39.42440	35.07550	1259.47729	311.93338	662.00909	1279.98132	360.03360	460.43994	1284.31909	497.58560	329.33661	1322.14819	614.17004	176.10036	1384.79553	662.75537	150.15126	1311.16858	524.20233	38.01760	1441.15955	241.25000	1789.86414	-3360.31274	2845.25024	1034.05127 
95	0.940	1518.76135	128.44569	1710.89624	1377.17480	151.64442	1693.45044	1546.25671	265.41278	1654.92310	1407.39673	301.33716	1638.34192	1461.42188	343.72336	1511.51343	1448.52368	391.75443	1229.86987	1479.97021	205.86562	1439.97339	1462.06641	150.22034	1272.28162	1388.38953	397.68280	1334.97998	1643.48059	293.14795	1474.88940	1715.74585	347.04678	1280.54089	1722.53394	377.12872	1144.37512	1744.48267	403.45355	1017.87079	1746.08276	371.91513	880.68378	1756.47205	425.12769	896.94257	1769.90308	425.21649	831.12097	1278.91028	256.11124	1483.14270	1193.22498	252.73749	1289.38733	1176.43567	205.75505	1147.57532	1171.39954	137.79974	1045.84424	1206.07080	53.24929	946.35028	1169.57959	90.67403	924.53479	1174.97156	32.46358	882.38220	1579.60120	132.80263	989.98053	1324.55225	153.12946	955.83960	1513.90198	352.81268	1017.69464	1398.99377	362.22470	1009.62018	1646.94836	133.52902	683.85162	1614.81775	119.10219	481.51886	1619.75403	144.43762	288.00766	1583.70947	116.97823	68.99107	1532.50562	151.02171	40.79441	1590.29736	-40.14802	34.50653	1261.12402	297.96213	662.02386	1277.96509	342.58484	460.26193	1282.71790	482.97040	332.52151	1321.61108	603.19031	182.95668	1384.56873	651.40948	159.79738	1312.01843	522.20508	38.21470	1443.09119	231.91714	1790.89624	-3360.26147	2845.17822	1034.03613 
96	0.950	1519.85522	118.88967	1711.53394	1378.59473	142.89378	1694.40222	1548.35632	256.17810	1656.04089	1409.35608	292.48047	1639.58813	1463.33228	334.88052	1512.18103	1450.86621	382.08334	1230.44727	1481.87134	196.49332	1441.36694	1464.34131	140.45601	1273.73438	1390.32690	388.22879	1335.50012	1645.17822	283.90982	1476.49329	1718.21338	335.15128	1281.32727	1725.76184	363.36057	1145.11084	1748.14185	387.80972	1018.35352	1749.83191	354.62671	881.51129	1760.83838	407.77023	897.29944	1774.40649	407.25302	831.51031	1281.01819	247.47083	1484.52844	1196.00830	245.50139	1290.46460	1179.76379	199.19505	1148.29651	1173.77673	132.76971	1045.76599	1208.31726	49.96315	944.91644	1171.51953	87.52950	923.60901	1176.68750	30.01944	880.34259	1582.41089	122.83199	992.41364	1328.76611	142.85121	956.98999	1516.13635	342.38187	1018.54004	1400.71448	351.65097	1010.65759	1648.49792	123.21920	684.04968	1616.20459	113.04617	481.31375	1619.05957	142.62512	287.96320	1583.61108	116.86488	69.21518	1532.28003	150.91982	40.81132	1590.31262	-40.63927	34.03343	1262.42590	284.03354	661.61548	1276.63281	324.60828	459.71036	1281.29321	467.17871	335.47812	1320.28662	590.54156	189.01073	1383.87463	639.00372	169.37073	1313.24207	520.71582	38.16595	1444.98535	222.58388	1791.95203	-3356.92920	2845.91846	1034.02600 
